<svg width="22" height="16" viewBox="0 0 22 16" fill="none" xmlns="http://www.w3.org/2000/svg">
<path d="M3.42271 8.90003L20.75 8.90003C20.9887 8.90003 21.2176 8.80521 21.3864 8.63643C21.5552 8.46764 21.65 8.23872 21.65 8.00003C21.65 7.76134 21.5552 7.53242 21.3864 7.36363C21.2176 7.19485 20.9887 7.10003 20.75 7.10003L3.42271 7.10003L7.88705 2.63711L7.88707 2.6371C8.05603 2.46813 8.15095 2.23898 8.15095 2.00003C8.15095 1.76108 8.05603 1.53192 7.88707 1.36296C7.71811 1.194 7.48895 1.09908 7.25 1.09908C7.01105 1.09908 6.78189 1.194 6.61293 1.36296L0.613068 7.36283C0.529253 7.44643 0.462757 7.54575 0.417385 7.65509C0.372015 7.76443 0.34866 7.88165 0.34866 8.00003C0.34866 8.11841 0.372015 8.23563 0.417385 8.34497C0.462757 8.45431 0.529253 8.55363 0.613068 8.63723L6.61293 14.6371C6.78189 14.8061 7.01105 14.901 7.25 14.901C7.48895 14.901 7.71811 14.8061 7.88707 14.6371C8.05603 14.4681 8.15095 14.239 8.15095 14C8.15095 13.7611 8.05603 13.5319 7.88707 13.363L7.88705 13.3629L3.42271 8.90003Z" fill="#1D1D1D" stroke="#1D1D1D" stroke-width="0.3"/>
</svg>
